<svg width="63" height="63" viewBox="0 0 63 63" fill="none" xmlns="http://www.w3.org/2000/svg">
<rect width="63" height="63" fill="white"/>
<path d="M31.9121 6C46.1633 6.00026 57.8232 17.634 57.8232 31.9629C57.8371 38.1445 55.6403 44.1279 51.6299 48.832C47.6196 53.5359 42.0598 56.6509 35.9541 57.6152V39.4775H41.9912L43.1572 31.9629H35.9541V27.0918C35.9541 25.0448 36.9647 23.0498 40.1777 23.0498H43.4424V16.6494C43.4424 16.6494 40.4884 16.1572 37.6641 16.1572C31.7304 16.1572 27.8692 19.7327 27.8691 26.2363V31.9629H21.2881V39.4775H27.8691V57.6152C15.4835 55.6717 6 44.9186 6 31.9629C6.00007 17.6338 17.6607 6 31.9121 6Z" fill="#E8FCA3"/>
</svg>
