<svg width="54" height="53" viewBox="0 0 54 53" fill="none" xmlns="http://www.w3.org/2000/svg">
<path d="M26.9116 1C12.6602 1 1 12.6343 1 26.9634C1 39.9192 10.4837 50.6726 22.8694 52.6159V34.4778H16.2879V26.9634H22.8694V21.237C22.8694 14.7332 26.7303 11.1574 32.664 11.1574C35.4884 11.1574 38.4423 11.6497 38.4423 11.6497V18.0498H35.1775C31.9644 18.0498 30.9539 20.045 30.9539 22.0921V26.9634H38.1573L36.9913 34.4778H30.9539V52.6159C37.0598 51.6516 42.6198 48.5362 46.6302 43.832C50.6406 39.1279 52.8372 33.145 52.8233 26.9634C52.8233 12.6343 41.1631 1 26.9116 1Z" fill="#404C54"/>
</svg>
