<svg width="52" height="35" viewBox="0 0 52 35" fill="none" xmlns="http://www.w3.org/2000/svg">
<path d="M48.7021 28.75C50.1946 28.75 51.4043 29.9597 51.4043 31.4521C51.4043 32.9446 50.1946 34.1543 48.7021 34.1543H2.70215C1.20968 34.1543 5.15442e-07 32.9446 0 31.4521C0 29.9597 1.20968 28.75 2.70215 28.75H48.7021ZM48.7021 14.375C50.1946 14.375 51.4043 15.5847 51.4043 17.0771C51.4043 18.5696 50.1946 19.7793 48.7021 19.7793H2.70215C1.20968 19.7793 2.57721e-07 18.5696 0 17.0771C0 15.5847 1.20968 14.375 2.70215 14.375H48.7021ZM48.7021 0C50.1946 0 51.4043 1.20968 51.4043 2.70215C51.4043 4.19462 50.1946 5.4043 48.7021 5.4043H2.70215C1.20968 5.4043 0 4.19462 0 2.70215C0 1.20968 1.20968 0 2.70215 0H48.7021Z" fill="#404C54"/>
</svg>
