<svg width="63" height="63" viewBox="0 0 63 63" fill="none" xmlns="http://www.w3.org/2000/svg">
<rect width="63" height="63" fill="white"/>
<path d="M20.0288 5H41.7945C50.0863 5 56.8233 11.8305 56.8233 20.2372V42.3048C56.8233 46.346 55.2399 50.2216 52.4215 53.0791C49.603 55.9367 45.7804 57.542 41.7945 57.542H20.0288C11.737 57.542 5 50.7115 5 42.3048V20.2372C5 16.196 6.58338 12.3204 9.40182 9.46287C12.2203 6.60534 16.0429 5 20.0288 5M19.5105 10.2542C17.0365 10.2542 14.6639 11.2506 12.9145 13.0243C11.1651 14.7979 10.1823 17.2035 10.1823 19.7118V42.8302C10.1823 48.0582 14.3541 52.2878 19.5105 52.2878H42.3128C44.7868 52.2878 47.1594 51.2914 48.9088 49.5177C50.6582 47.7441 51.641 45.3385 51.641 42.8302V19.7118C51.641 14.4838 47.4692 10.2542 42.3128 10.2542H19.5105ZM44.5153 14.1948C45.3743 14.1948 46.1981 14.5408 46.8056 15.1567C47.413 15.7725 47.7542 16.6078 47.7542 17.4787C47.7542 18.3497 47.413 19.1849 46.8056 19.8008C46.1981 20.4166 45.3743 20.7626 44.5153 20.7626C43.6562 20.7626 42.8324 20.4166 42.225 19.8008C41.6176 19.1849 41.2763 18.3497 41.2763 17.4787C41.2763 16.6078 41.6176 15.7725 42.225 15.1567C42.8324 14.5408 43.6562 14.1948 44.5153 14.1948ZM30.9117 18.1355C34.3478 18.1355 37.6431 19.5194 40.0728 21.9828C42.5025 24.4462 43.8675 27.7872 43.8675 31.271C43.8675 34.7547 42.5025 38.0958 40.0728 40.5592C37.6431 43.0226 34.3478 44.4065 30.9117 44.4065C27.4756 44.4065 24.1802 43.0226 21.7505 40.5592C19.3208 38.0958 17.9558 34.7547 17.9558 31.271C17.9558 27.7872 19.3208 24.4462 21.7505 21.9828C24.1802 19.5194 27.4756 18.1355 30.9117 18.1355M30.9117 23.3897C28.85 23.3897 26.8728 24.22 25.415 25.6981C23.9571 27.1761 23.1382 29.1807 23.1382 31.271C23.1382 33.3612 23.9571 35.3659 25.415 36.8439C26.8728 38.3219 28.85 39.1523 30.9117 39.1523C32.9733 39.1523 34.9505 38.3219 36.4083 36.8439C37.8662 35.3659 38.6851 33.3612 38.6851 31.271C38.6851 29.1807 37.8662 27.1761 36.4083 25.6981C34.9505 24.22 32.9733 23.3897 30.9117 23.3897Z" fill="#404C54"/>
</svg>
