<svg width="54" height="55" viewBox="0 0 54 55" fill="none" xmlns="http://www.w3.org/2000/svg">
<path d="M16.0288 1H37.7945C46.0863 1 52.8233 7.83046 52.8233 16.2372V38.3048C52.8233 42.346 51.2399 46.2216 48.4215 49.0791C45.603 51.9367 41.7804 53.542 37.7945 53.542H16.0288C7.73703 53.542 1 46.7115 1 38.3048V16.2372C1 12.196 2.58338 8.32039 5.40182 5.46287C8.22026 2.60534 12.0429 1 16.0288 1M15.5105 6.2542C13.0365 6.2542 10.6639 7.25062 8.9145 9.02425C7.16512 10.7979 6.18233 13.2035 6.18233 15.7118V38.8302C6.18233 44.0582 10.3541 48.2878 15.5105 48.2878H38.3128C40.7868 48.2878 43.1594 47.2914 44.9088 45.5177C46.6582 43.7441 47.641 41.3385 47.641 38.8302V15.7118C47.641 10.4838 43.4692 6.2542 38.3128 6.2542H15.5105ZM40.5153 10.1948C41.3743 10.1948 42.1981 10.5408 42.8056 11.1567C43.413 11.7725 43.7542 12.6078 43.7542 13.4787C43.7542 14.3497 43.413 15.1849 42.8056 15.8008C42.1981 16.4166 41.3743 16.7626 40.5153 16.7626C39.6562 16.7626 38.8324 16.4166 38.225 15.8008C37.6176 15.1849 37.2763 14.3497 37.2763 13.4787C37.2763 12.6078 37.6176 11.7725 38.225 11.1567C38.8324 10.5408 39.6562 10.1948 40.5153 10.1948ZM26.9117 14.1355C30.3478 14.1355 33.6431 15.5194 36.0728 17.9828C38.5025 20.4462 39.8675 23.7872 39.8675 27.271C39.8675 30.7547 38.5025 34.0958 36.0728 36.5592C33.6431 39.0226 30.3478 40.4065 26.9117 40.4065C23.4756 40.4065 20.1802 39.0226 17.7505 36.5592C15.3208 34.0958 13.9558 30.7547 13.9558 27.271C13.9558 23.7872 15.3208 20.4462 17.7505 17.9828C20.1802 15.5194 23.4756 14.1355 26.9117 14.1355M26.9117 19.3897C24.85 19.3897 22.8728 20.22 21.415 21.6981C19.9571 23.1761 19.1382 25.1807 19.1382 27.271C19.1382 29.3612 19.9571 31.3659 21.415 32.8439C22.8728 34.3219 24.85 35.1523 26.9117 35.1523C28.9733 35.1523 30.9505 34.3219 32.4083 32.8439C33.8662 31.3659 34.6851 29.3612 34.6851 27.271C34.6851 25.1807 33.8662 23.1761 32.4083 21.6981C30.9505 20.22 28.9733 19.3897 26.9117 19.3897Z" fill="#E8FCA3"/>
</svg>
