<svg width="63" height="63" viewBox="0 0 63 63" fill="none" xmlns="http://www.w3.org/2000/svg">
<g clip-path="url(#clip0_1023_515)">
<rect width="63" height="63" fill="white"/>
<path d="M51.3758 55.0455L34.8621 38.5318C33.5515 39.5803 32.0443 40.4104 30.3405 41.022C28.6368 41.6336 26.8237 41.9394 24.9015 41.9394C20.1397 41.9394 16.1095 40.2902 12.8112 36.9919C9.51283 33.6935 7.86365 29.6634 7.86365 24.9015C7.86365 20.1397 9.51283 16.1095 12.8112 12.8112C16.1095 9.51283 20.1397 7.86365 24.9015 7.86365C29.6634 7.86365 33.6935 9.51283 36.9919 12.8112C40.2902 16.1095 41.9394 20.1397 41.9394 24.9015C41.9394 26.8237 41.6336 28.6368 41.022 30.3405C40.4104 32.0443 39.5803 33.5515 38.5318 34.8621L55.0455 51.3758L51.3758 55.0455ZM24.9015 36.697C28.178 36.697 30.9631 35.5502 33.2566 33.2566C35.5502 30.9631 36.697 28.178 36.697 24.9015C36.697 21.625 35.5502 18.84 33.2566 16.5464C30.9631 14.2529 28.178 13.1061 24.9015 13.1061C21.625 13.1061 18.84 14.2529 16.5464 16.5464C14.2529 18.84 13.1061 21.625 13.1061 24.9015C13.1061 28.178 14.2529 30.9631 16.5464 33.2566C18.84 35.5502 21.625 36.697 24.9015 36.697Z" fill="#E8FCA3"/>
</g>
<defs>
<clipPath id="clip0_1023_515">
<rect width="63" height="63" fill="white"/>
</clipPath>
</defs>
</svg>
