<svg width="48" height="48" viewBox="0 0 48 48" fill="none" xmlns="http://www.w3.org/2000/svg">
<path d="M43.5121 47.1818L26.9985 30.6682C25.6879 31.7167 24.1807 32.5467 22.4769 33.1583C20.7731 33.77 18.9601 34.0758 17.0379 34.0758C12.276 34.0758 8.2459 32.4266 4.94754 29.1282C1.64918 25.8299 0 21.7997 0 17.0379C0 12.276 1.64918 8.2459 4.94754 4.94754C8.2459 1.64918 12.276 0 17.0379 0C21.7997 0 25.8299 1.64918 29.1282 4.94754C32.4266 8.2459 34.0758 12.276 34.0758 17.0379C34.0758 18.9601 33.77 20.7731 33.1583 22.4769C32.5467 24.1807 31.7167 25.6879 30.6682 26.9985L47.1818 43.5121L43.5121 47.1818ZM17.0379 28.8333C20.3144 28.8333 23.0994 27.6866 25.393 25.393C27.6866 23.0994 28.8333 20.3144 28.8333 17.0379C28.8333 13.7614 27.6866 10.9763 25.393 8.68277C23.0994 6.3892 20.3144 5.24242 17.0379 5.24242C13.7614 5.24242 10.9763 6.3892 8.68277 8.68277C6.3892 10.9763 5.24242 13.7614 5.24242 17.0379C5.24242 20.3144 6.3892 23.0994 8.68277 25.393C10.9763 27.6866 13.7614 28.8333 17.0379 28.8333Z" fill="#E8FCA3"/>
</svg>
