<?xml version="1.0" encoding="UTF-8"?>
<svg id="Layer_1" data-name="Layer 1" xmlns="http://www.w3.org/2000/svg" viewBox="0 0 165.77 165.77">
  <defs>
    <style>
      .cls-1 {
        fill: #e8fca3;
      }
    </style>
  </defs>
  <rect class="cls-1" x="0" width="165.77" height="165.77" rx="31.3" ry="31.3"/>
  <path d="M136.02,61.67c-4.81,1.23-7.79,6.05-6.71,10.92,1.1,4.97,6.03,8.11,11,7.01,4.97-1.1,8.11-6.03,7-11-.72-3.27-3.1-5.75-6.06-6.74.39-3.5-.53-7.18-2.76-11.02-1.59-2.74-3.47-4.88-5.61-6.41-2.15-1.53-4.4-2.37-6.71-2.55-2.33-.17-4.64.42-6.91,1.74-2.74,1.6-4.5,3.78-5.29,6.54-.78,2.76-.74,6.31.11,10.64l1.66,8.56c.56,2.66.57,4.85.06,6.57-.52,1.72-1.75,3.13-3.67,4.25-.3.18-.6.34-.9.47-1.71.78-3.37.91-4.97.37-.19-.05-.38-.12-.56-.2-2.06-.88-3.98-2.84-5.75-5.89-2.1-3.61-2.92-6.91-2.46-9.9.02-.15.04-.29.07-.44,1.4-1.46,2.32-3.26,2.75-5.36.21-.98.3-2.01.31-3.12,0-1.11-.11-2.18-.32-3.17-.43-2.06-1.28-3.84-2.57-5.35-1.92-2.24-4.77-4-8.59-5.31l-8.79-3.03c-2.68-.89-4.65-1.95-5.92-3.17-1.27-1.22-1.92-2.86-1.93-4.89,0-2.41.9-4.27,2.71-5.59,1.8-1.32,4.34-1.98,7.6-2,3.45-.01,6.1.77,7.94,2.35.11.1.22.2.33.3-1.35,4.77,1.34,9.78,6.1,11.28,4.86,1.54,10.04-1.16,11.57-6.02,1.53-4.85-1.16-10.03-6.02-11.56-3.2-1.01-6.54-.19-8.88,1.88-2.83-2.1-6.47-3.14-10.92-3.13-3.17.01-5.95.56-8.35,1.66-2.41,1.1-4.25,2.62-5.56,4.54-1.31,1.93-1.96,4.22-1.95,6.85.01,3.18,1.01,5.79,3.02,7.85,2,2.05,5.08,3.8,9.27,5.23l8.23,2.83c2.59.85,4.5,1.93,5.73,3.25,1.23,1.3,1.85,3.07,1.85,5.3.01.34,0,.67-.05,1-.18,1.87-.89,3.38-2.15,4.5-.15.14-.3.27-.47.39-1.78,1.34-4.44,2.02-7.98,2.03-4.17,0-7.44-.93-9.8-2.82-.12-.1-.23-.19-.34-.3-.57-1.94-1.66-3.61-3.25-5.02-.74-.68-1.6-1.29-2.56-1.84-.97-.55-1.94-.99-2.9-1.31-2-.67-3.98-.81-5.93-.46-2.89.54-5.85,2.13-8.89,4.78l-7.02,6.1c-2.11,1.87-4.02,3.05-5.71,3.54-1.7.5-3.43.23-5.2-.78-2.08-1.19-3.25-2.9-3.49-5.13-.24-2.22.46-4.76,2.08-7.59,1.71-2.99,3.72-4.89,6-5.69.14-.05.28-.1.43-.13,3.46,3.54,9.14,3.72,12.82.35,3.75-3.44,4.01-9.28.57-13.03-3.44-3.76-9.28-4.01-13.03-.57-2.47,2.26-3.43,5.56-2.8,8.62-3.24,1.4-5.96,4.04-8.17,7.9-1.58,2.76-2.49,5.44-2.74,8.06-.26,2.64.13,5,1.15,7.1,1.02,2.09,2.67,3.8,4.95,5.11,2.76,1.57,5.53,2.01,8.3,1.3,2.78-.71,5.84-2.5,9.18-5.4l6.56-5.72c2.04-1.82,3.92-2.93,5.68-3.34,1.74-.41,3.59-.06,5.51,1.04.31.17.59.36.86.56,1.53,1.08,2.47,2.46,2.81,4.12.04.18.07.38.1.58.27,2.21-.48,4.86-2.24,7.93-2.07,3.62-4.51,5.97-7.34,7.08-.13.05-.27.1-.41.15-1.97-.48-3.97-.38-6,.29-.95.31-1.9.75-2.86,1.3-.97.57-1.83,1.19-2.59,1.86-1.58,1.4-2.69,3.04-3.35,4.91-.98,2.77-1.08,6.13-.3,10.09l1.77,9.12c.56,2.77.63,5.01.21,6.72-.42,1.72-1.52,3.09-3.28,4.12-2.08,1.19-4.13,1.35-6.18.44-2.05-.9-3.9-2.76-5.55-5.59-1.72-2.97-2.37-5.66-1.92-8.04.03-.15.06-.29.1-.44,4.81-1.22,7.79-6.05,6.71-10.92-1.1-4.97-6.03-8.11-11-7.01-4.97,1.1-8.11,6.03-7.01,11,.73,3.27,3.11,5.75,6.07,6.75-.39,3.5.52,7.17,2.75,11.01,1.61,2.74,3.48,4.87,5.63,6.41,2.15,1.53,4.38,2.38,6.71,2.55,2.33.16,4.62-.42,6.9-1.74,2.74-1.6,4.5-3.78,5.28-6.53.78-2.77.75-6.32-.09-10.66l-1.68-8.54c-.55-2.67-.57-4.86-.05-6.58.53-1.72,1.75-3.14,3.67-4.25.3-.18.6-.34.9-.47,1.71-.78,3.37-.91,4.98-.37.18.05.37.12.55.2,2.06.88,3.97,2.84,5.75,5.89,2.1,3.61,2.92,6.91,2.46,9.9-.02.15-.05.29-.08.44-1.4,1.46-2.31,3.25-2.74,5.35-.21.98-.3,2.02-.3,3.12s.1,2.19.32,3.18c.42,2.06,1.27,3.84,2.56,5.35,1.91,2.24,4.78,4,8.59,5.31l8.78,3.03c2.68.89,4.66,1.95,5.93,3.17,1.28,1.22,1.92,2.86,1.92,4.89.01,2.41-.89,4.27-2.7,5.6-1.81,1.31-4.35,1.97-7.61,1.99-3.45.01-6.08-.77-7.93-2.35-.11-.1-.22-.2-.33-.3,1.35-4.77-1.34-9.78-6.1-11.28-4.86-1.53-10.04,1.16-11.57,6.02-1.53,4.86,1.16,10.03,6.02,11.57,3.19,1.01,6.53.18,8.87-1.89,2.85,2.1,6.49,3.14,10.92,3.13,3.17-.02,5.96-.57,8.36-1.66,2.4-1.1,4.26-2.62,5.57-4.54,1.3-1.94,1.95-4.22,1.94-6.85-.01-3.18-1.02-5.79-3.02-7.85-2-2.05-5.09-3.8-9.26-5.23l-8.24-2.83c-2.59-.85-4.5-1.93-5.73-3.25-1.22-1.3-1.84-3.07-1.85-5.3,0-.34.02-.67.05-1,.17-1.88.9-3.38,2.16-4.5.14-.15.3-.27.45-.39,1.79-1.34,4.46-2.02,7.98-2.03,4.18-.02,7.45.92,9.81,2.82.13.1.24.19.34.3.58,1.94,1.67,3.61,3.26,5.03.74.67,1.59,1.28,2.56,1.83.97.56,1.94.99,2.9,1.32,1.99.66,3.97.8,5.92.45,2.89-.54,5.86-2.13,8.89-4.78l7.02-6.1c2.11-1.87,4.02-3.05,5.71-3.54,1.69-.5,3.43-.23,5.2.77,2.08,1.2,3.24,2.91,3.48,5.14.24,2.22-.45,4.76-2.07,7.59-1.71,2.98-3.71,4.89-6.01,5.69-.14.05-.28.09-.42.13-3.46-3.54-9.14-3.72-12.82-.35-3.75,3.44-4.01,9.28-.57,13.03,3.44,3.76,9.28,4.01,13.03.57,2.47-2.26,3.43-5.56,2.8-8.62,3.24-1.41,5.97-4.05,8.17-7.9,1.58-2.76,2.5-5.44,2.74-8.06.25-2.64-.14-5-1.15-7.1-1.02-2.09-2.67-3.8-4.96-5.1-2.75-1.58-5.51-2.02-8.3-1.32-2.78.72-5.84,2.51-9.17,5.41l-6.57,5.72c-2.02,1.82-3.92,2.93-5.66,3.34-1.76.41-3.59.06-5.52-1.04-.3-.17-.6-.36-.86-.56-1.53-1.09-2.47-2.47-2.82-4.13-.04-.18-.07-.37-.09-.57-.27-2.22.47-4.86,2.23-7.93,2.07-3.62,4.53-5.98,7.34-7.08.15-.05.28-.1.43-.15,1.96.48,3.95.38,5.98-.29.95-.31,1.9-.75,2.87-1.31.98-.57,1.85-1.19,2.61-1.88,1.56-1.39,2.66-3.02,3.33-4.88.99-2.77,1.09-6.13.31-10.09l-1.77-9.13c-.56-2.76-.63-5.01-.21-6.71.41-1.72,1.5-3.09,3.27-4.11,2.07-1.21,4.14-1.36,6.19-.45,2.05.9,3.89,2.76,5.53,5.59,1.74,2.97,2.38,5.66,1.93,8.04-.03.15-.06.29-.1.44ZM94.03,91.31c-1.5,2.59-2.45,5.04-2.87,7.33-2.8-1.28-6.13-1.9-10-1.89-2.99.01-5.59.39-7.78,1.17-.3-3.05-1.42-6.26-3.36-9.59-1.51-2.59-3.15-4.64-4.92-6.15,2.5-1.79,4.72-4.36,6.65-7.72,1.48-2.6,2.44-5.04,2.87-7.33,2.8,1.28,6.13,1.9,9.99,1.89,2.99,0,5.59-.39,7.78-1.17.29,3.05,1.41,6.26,3.36,9.59,1.5,2.59,3.14,4.64,4.92,6.15-2.51,1.79-4.71,4.37-6.64,7.72Z"/>
</svg>